<svg xmlns="http://www.w3.org/2000/svg" width="52" height="52" fill="none" viewBox="0 0 52 52">
  <path fill="#DBA009" d="M44.992 0H7.008A7.007 7.007 0 0 0 0 7.007v37.986A7.007 7.007 0 0 0 7.007 52h18.734l.032-18.582h-4.827a1.139 1.139 0 0 1-1.14-1.135l-.022-5.99a1.14 1.14 0 0 1 1.139-1.143h4.819v-5.788c0-6.716 4.101-10.373 10.093-10.373h4.916c.63 0 1.14.51 1.14 1.139v5.05a1.14 1.14 0 0 1-1.139 1.14l-3.017.001c-3.258 0-3.89 1.548-3.89 3.82v5.011h7.16c.683 0 1.212.596 1.131 1.273l-.71 5.99a1.14 1.14 0 0 1-1.13 1.005h-6.418L33.846 52h11.147A7.007 7.007 0 0 0 52 44.993V7.007A7.007 7.007 0 0 0 44.992 0Z"/>
</svg>
