<svg xmlns="http://www.w3.org/2000/svg" width="52" height="52" fill="none" viewBox="0 0 52 52">
  <path fill="#DBA009" d="M30.598 22.66a5.681 5.681 0 0 0-4.619-2.392 5.682 5.682 0 0 0-4.618 2.392A5.859 5.859 0 0 0 20.289 26a5.702 5.702 0 0 0 5.69 5.69A5.702 5.702 0 0 0 31.67 26a5.859 5.859 0 0 0-1.072-3.34Z"/>
  <path fill="#DBA009" d="M34.186 22.7c.412.826.66 2.145.66 3.3 0 4.866-3.96 8.866-8.867 8.866A8.852 8.852 0 0 1 17.113 26c0-1.196.248-2.474.66-3.3h-4.99v13.238c0 1.732 1.526 3.258 3.258 3.258h19.876c1.733 0 3.258-1.526 3.258-3.258V22.701h-4.99Zm3.504-9.154h-4.783v5.485h5.444v-5.526l-.66.041Z"/>
  <path fill="#DBA009" d="M38.928.02H13.03C5.856.02 0 5.877 0 13.052V38.99c0 7.134 5.856 12.99 13.03 12.99h25.94c7.174 0 13.03-5.856 13.03-13.032V13.051C51.959 5.876 46.103.021 38.928.021Zm3.134 22.64v13.278c0 3.464-2.68 6.144-6.145 6.144H16.041c-3.464 0-6.144-2.68-6.144-6.144V16.062c0-3.464 2.68-6.145 6.144-6.145h19.876c3.464 0 6.145 2.68 6.145 6.145v6.598Z"/>
</svg>
