<svg width="68" height="68" viewBox="0 0 68 68" fill="none" xmlns="http://www.w3.org/2000/svg">
    <circle cx="34" cy="34" r="34" fill="#DB2830"/>
    <path d="M27.7887 24.9788C27.658 24.9788 27.5272 25.0286 27.4277 25.1284L26.4064 26.1497C26.2067 26.3494 26.2067 26.6727 26.4064 26.8718L30.1305 30.596L26.4064 34.3201C26.2067 34.5198 26.2067 34.8431 26.4064 35.0422L27.4277 36.0635C27.6273 36.2632 27.9506 36.2632 28.1497 36.0635L31.8739 32.3394L35.598 36.0635C35.7972 36.2632 36.121 36.2632 36.3201 36.0635L37.3414 35.0422C37.5411 34.8426 37.5411 34.5193 37.3414 34.3201L33.6173 30.596L37.3414 26.8718C37.5411 26.6727 37.5411 26.3489 37.3414 26.1497L36.3201 25.1284C36.1205 24.9288 35.7972 24.9288 35.598 25.1284L31.8739 28.8526L28.1497 25.1284C28.0499 25.0286 27.9194 24.9788 27.7887 24.9788Z" fill="white"/>
    <path d="M31.7312 16C23.6129 16 17 22.6129 17 30.7312C17 38.8496 23.6129 45.4625 31.7312 45.4625C35.2616 45.4625 38.5038 44.2088 41.0447 42.1278L49.8403 50.9234C49.9761 51.0648 50.1386 51.1777 50.3186 51.2554C50.4985 51.3332 50.6921 51.3743 50.8881 51.3763C51.0841 51.3783 51.2785 51.3411 51.4599 51.267C51.6414 51.193 51.8062 51.0834 51.9448 50.9448C52.0834 50.8062 52.193 50.6414 52.267 50.4599C52.3411 50.2785 52.3783 50.0841 52.3763 49.8881C52.3743 49.6921 52.3332 49.4985 52.2554 49.3186C52.1777 49.1386 52.0648 48.9761 51.9234 48.8403L43.1278 40.0447C45.2088 37.5038 46.4625 34.2616 46.4625 30.7312C46.4625 22.6129 39.8496 16 31.7312 16ZM31.7312 18.9462C38.2574 18.9462 43.5162 24.2051 43.5162 30.7312C43.5162 37.2574 38.2574 42.5162 31.7312 42.5162C25.2051 42.5162 19.9462 37.2574 19.9462 30.7312C19.9462 24.2051 25.2051 18.9462 31.7312 18.9462Z" fill="white"/>
    </svg>
    