<svg xmlns="http://www.w3.org/2000/svg" width="25" height="25" fill="none" viewBox="0 0 25 25">
  <g clip-path="url(#a)">
    <path fill="#FFBA0A" d="M8.67 24.02a8.427 8.427 0 0 1-8.514-8.344L.086 8.67A8.427 8.427 0 0 1 8.428.156l7.005-.07a8.427 8.427 0 0 1 8.515 8.343l.07 7.006a8.427 8.427 0 0 1-8.343 8.514l-7.005.07Z"/>
    <path fill="#FFBA0A" d="M15.434.085A8.427 8.427 0 0 1 23.95 8.43l.07 7.006a8.427 8.427 0 0 1-8.343 8.514l-7.005.07a8.427 8.427 0 0 1-8.515-8.343"/>
    <path fill="#FFBA0A" d="M24.02 15.435a8.427 8.427 0 0 1-8.344 8.514l-7.005.07a8.427 8.427 0 0 1-8.515-8.343m12.539-.974 2.21-2.293a.558.558 0 0 0-.008-.809l-2.255-2.21a.558.558 0 0 0-.809.009.558.558 0 0 0 .008.808l1.284 1.296-5.196.053a.592.592 0 0 0-.572.583.592.592 0 0 0 .583.571l5.235-.053-1.257 1.283a.551.551 0 0 0-.15.387c0 .115.04.269.157.383.195.19.541.187.77-.008Z"/>
    <path fill="#fff" d="m14.45 15.71 3.282-3.406a.83.83 0 0 0-.013-1.2L14.37 7.82a.829.829 0 0 0-1.2.013.83.83 0 0 0 .012 1.2l1.906 1.925-7.718.078a.88.88 0 0 0-.849.866.842.842 0 0 0 .867.849l7.774-.079-1.867 1.906a.819.819 0 0 0-.223.574.82.82 0 0 0 .235.57c.288.282.803.277 1.143-.012Z"/>
  </g>
  <defs>
    <clipPath id="a">
      <path fill="#fff" d="M0 0h23.865v23.865H0z" transform="rotate(89.421 11.932 12.053)"/>
    </clipPath>
  </defs>
</svg>
