<svg xmlns="http://www.w3.org/2000/svg" width="53" height="53" fill="none" viewBox="0 0 53 53">
  <path fill="#DBA009" d="M26.773 12.546c-7.523 0-13.618 6.052-13.618 13.534 0 2.942.967 5.716 2.606 7.943l-1.723 5.044 5.254-1.681c2.143 1.429 4.75 2.227 7.523 2.227 7.524 0 13.66-6.052 13.66-13.533-.042-7.482-6.178-13.534-13.702-13.534ZM34.76 31.67c-.336.924-1.976 1.807-2.69 1.891-.715.084-.715.588-4.791-.967-4.035-1.597-6.6-5.674-6.81-5.968-.21-.252-1.639-2.143-1.639-4.077 0-1.933 1.01-2.9 1.387-3.278.379-.379.8-.505 1.051-.505.252 0 .547.042.757.042.252 0 .546-.126.882.673.337.798 1.135 2.732 1.22 2.942.083.21.167.42.041.673-.126.252-.21.42-.378.672-.21.21-.42.504-.588.672-.21.21-.42.42-.169.799.253.378 1.051 1.681 2.228 2.732 1.513 1.345 2.816 1.765 3.194 1.975.379.21.63.168.841-.084.252-.252 1.009-1.134 1.26-1.555.253-.378.547-.336.884-.21.378.126 2.311 1.093 2.731 1.303.379.21.673.294.757.462.126.084.126.883-.168 1.808Z"/>
  <path fill="#DBA009" d="M39.676.021H13.281C5.969.021 0 5.989 0 13.303v26.436c0 7.272 5.968 13.24 13.281 13.24h26.437C47.032 52.979 53 47.011 53 39.697V13.302C52.958 5.99 46.99.022 39.676.022ZM26.773 42.177c-2.858 0-5.506-.714-7.86-2.017L9.92 43.018l2.942-8.616a16.082 16.082 0 0 1-2.311-8.322c0-8.91 7.27-16.098 16.223-16.098S42.997 17.17 42.997 26.08s-7.271 16.097-16.224 16.097Z"/>
</svg>
